<svg xmlns="http://www.w3.org/2000/svg" viewBox="248 0 405 240"><title>Wynncrest Books emblem</title><path d="M 477 71 L 447 72 L 426 78 L 406 90 L 394 102 L 389 111 L 397 125 L 401 126 L 407 115 L 414 107 L 429 96 L 448 89 L 469 88 L 477 74 Z M 643 182 L 520 8 L 518 9 L 427 188 L 424 186 L 387 120 L 377 105 L 359 87 L 343 78 L 322 72 L 257 71 L 259 78 L 343 217 L 351 228 L 355 222 L 382 163 L 372 146 L 370 146 L 351 187 L 348 188 L 290 93 L 290 88 L 313 88 L 331 92 L 346 100 L 361 114 L 374 134 L 427 228 L 429 228 L 452 213 L 477 201 L 496 194 L 523 187 L 568 181 L 609 181 L 643 185 Z M 607 162 L 606 165 L 554 166 L 517 172 L 501 177 L 496 176 L 506 170 L 527 162 L 569 153 L 599 152 Z M 523 44 L 587 134 L 581 137 L 569 137 L 540 142 L 516 149 L 480 166 L 452 186 L 451 184 L 520 45 Z" fill="#1D503A" fill-rule="evenodd" clip-rule="evenodd"/></svg>